<svg width="1096" height="300" viewBox="0 0 1096 300" fill="none" xmlns="http://www.w3.org/2000/svg">
<g clip-path="url(#clip0_2447_11)">
<path d="M69.4187 214.51C67.4318 214.51 65.8541 214.715 64.6856 215.124C63.5752 215.474 62.7282 216.292 62.1438 217.578C61.6179 218.805 61.2673 220.675 61.092 223.187C60.9752 225.7 60.9167 229.089 60.9167 233.355V255.092C60.9167 259.358 60.9752 262.746 61.092 265.259C61.2673 267.772 61.6179 269.642 62.1438 270.869C62.7282 272.096 63.5752 272.914 64.6856 273.323C65.8541 273.673 67.4318 273.849 69.4187 273.849L69.594 274.901H45.9286L46.1039 273.849C48.149 273.849 49.7266 273.673 50.837 273.323C52.0055 272.914 52.882 272.096 53.4665 270.869C54.0509 269.642 54.4015 267.772 54.5183 265.259C54.6936 262.746 54.7812 259.358 54.7812 255.092V245.45H19.2832V255.092C19.2832 259.358 19.3709 262.746 19.5462 265.259C19.7215 267.772 20.0721 269.642 20.598 270.869C21.1823 272.096 22.0295 272.914 23.1398 273.323C24.3084 273.673 25.8861 273.849 27.8729 273.849L28.0482 274.901H4.38281L4.55811 273.849C6.54484 273.849 8.12253 273.673 9.29118 273.323C10.4598 272.914 11.3071 272.096 11.833 270.869C12.4174 269.642 12.768 267.772 12.8848 265.259C13.0601 262.746 13.1478 259.358 13.1478 255.092V233.355C13.1478 229.089 13.0601 225.7 12.8848 223.187C12.768 220.675 12.4174 218.805 11.833 217.578C11.3071 216.292 10.4598 215.474 9.29118 215.124C8.12253 214.715 6.54484 214.51 4.55811 214.51L4.38281 213.546H28.0482L27.8729 214.51C25.8861 214.51 24.3084 214.715 23.1398 215.124C22.0295 215.474 21.1823 216.292 20.598 217.578C20.0721 218.805 19.7215 220.675 19.5462 223.187C19.3709 225.7 19.2832 229.089 19.2832 233.355V243.171H54.7812V233.355C54.7812 229.089 54.6936 225.7 54.5183 223.187C54.4015 220.675 54.0509 218.805 53.4665 217.578C52.882 216.292 52.0055 215.474 50.837 215.124C49.7266 214.715 48.149 214.51 46.1039 214.51L45.9286 213.546H69.594L69.4187 214.51ZM110.066 246.59V255.442C110.066 259.591 110.125 262.805 110.241 265.084C110.417 267.363 110.767 268.97 111.293 269.905C111.819 270.781 112.608 271.219 113.66 271.219C114.419 271.219 115.121 271.103 115.763 270.869C116.406 270.577 117.019 270.284 117.604 269.992L118.042 270.869C118.042 270.869 117.458 271.248 116.289 272.008C115.121 272.709 113.514 273.44 111.468 274.199C109.482 274.959 107.261 275.339 104.807 275.339C104.573 274.228 104.369 272.593 104.194 270.43C104.018 268.268 103.931 265.989 103.931 263.594C103.288 265.522 102.412 267.421 101.301 269.291C100.249 271.161 98.8179 272.709 97.0063 273.936C95.1948 275.164 92.8577 275.777 89.9944 275.777C86.547 275.777 83.7422 274.813 81.58 272.885C79.4179 270.956 78.337 268.268 78.337 264.821C78.337 262.016 79.1844 259.562 80.8788 257.458C82.5733 255.296 85.2904 253.631 89.0302 252.462C92.7701 251.235 97.7366 250.622 103.931 250.622V247.466C103.931 244.954 103.697 242.733 103.229 240.805C102.82 238.818 101.973 237.27 100.688 236.16C99.4605 235.049 97.649 234.494 95.2533 234.494C93.6171 234.494 92.3318 234.816 91.3968 235.458C90.4617 236.043 89.7023 236.773 89.1179 237.65C88.592 238.526 88.1247 239.432 87.7155 240.367C87.3063 241.243 86.8099 242.003 86.2255 242.646C85.6996 243.23 84.9398 243.522 83.9466 243.522C81.9597 243.522 80.9665 242.529 80.9665 240.542C80.9665 238.848 81.6677 237.416 83.0701 236.247C84.4725 235.079 86.284 234.173 88.5043 233.53C90.7832 232.887 93.1498 232.566 95.6039 232.566C99.7525 232.566 103.2 233.705 105.947 235.984C108.693 238.205 110.066 241.74 110.066 246.59ZM91.3968 273.06C93.6756 273.06 95.6039 272.388 97.1816 271.044C98.7593 269.7 100.015 267.976 100.951 265.873C101.944 263.769 102.674 261.549 103.142 259.211C103.609 256.816 103.872 254.624 103.931 252.638C99.3143 252.696 95.6039 253.31 92.7992 254.478C90.0529 255.647 88.0661 257.166 86.839 259.036C85.6119 260.906 84.9984 262.951 84.9984 265.171C84.9984 267.334 85.5243 269.203 86.576 270.781C87.6278 272.3 89.2346 273.06 91.3968 273.06ZM137.879 232.566V248.255C138.229 245.801 138.931 243.376 139.982 240.98C141.093 238.526 142.612 236.51 144.54 234.932C146.527 233.355 148.952 232.566 151.815 232.566C156.315 232.566 159.674 233.793 161.895 236.247C164.116 238.643 165.225 242.091 165.225 246.59V260.438C165.225 264.412 165.372 267.363 165.664 269.291C165.956 271.219 166.628 272.475 167.68 273.06C168.731 273.586 170.397 273.849 172.676 273.849L172.851 274.901H151.552L151.727 273.849C153.539 273.849 154.941 273.703 155.935 273.411C156.928 273.119 157.629 272.505 158.038 271.57C158.506 270.635 158.798 269.232 158.915 267.363C159.032 265.434 159.09 262.864 159.09 259.65V247.466C159.09 243.668 158.506 240.688 157.337 238.526C156.168 236.364 153.977 235.283 150.763 235.283C148.718 235.283 146.936 235.897 145.417 237.124C143.956 238.351 142.729 239.958 141.735 241.944C140.801 243.873 140.041 245.976 139.457 248.255C138.872 250.534 138.463 252.754 138.229 254.917C137.996 257.02 137.879 258.861 137.879 260.438C137.879 263.477 137.937 265.902 138.054 267.713C138.171 269.466 138.463 270.781 138.931 271.658C139.398 272.534 140.129 273.119 141.122 273.411C142.115 273.703 143.488 273.849 145.241 273.849L145.417 274.901H124.03L124.206 273.849C126.017 273.849 127.419 273.703 128.413 273.411C129.464 273.119 130.224 272.534 130.692 271.658C131.159 270.722 131.451 269.35 131.568 267.538C131.685 265.726 131.743 263.302 131.743 260.263V253.251C131.743 248.985 131.656 245.597 131.48 243.084C131.364 240.571 131.013 238.701 130.429 237.474C129.845 236.247 128.968 235.458 127.799 235.108C126.689 234.699 125.112 234.494 123.066 234.494L122.891 233.53C122.891 233.53 123.621 233.442 125.082 233.267C126.602 233.092 128.5 232.946 130.779 232.829C133.058 232.654 135.425 232.566 137.879 232.566ZM208.602 265.171C208.076 266.983 207.229 268.707 206.06 270.343C204.95 271.92 203.489 273.235 201.678 274.287C199.866 275.28 197.646 275.777 195.016 275.777C192.036 275.777 189.494 275.134 187.391 273.849C185.345 272.563 183.71 270.898 182.482 268.853C181.255 266.749 180.349 264.47 179.765 262.016C179.239 259.562 178.976 257.166 178.976 254.829C178.976 250.738 179.853 247.028 181.606 243.697C183.359 240.308 185.871 237.62 189.144 235.634C192.416 233.589 196.331 232.566 200.889 232.566C202.525 232.566 203.986 232.683 205.271 232.917C206.615 233.092 207.813 233.326 208.865 233.618V225.291C208.865 222.311 208.806 219.973 208.69 218.279C208.572 216.526 208.28 215.24 207.813 214.422C207.345 213.605 206.615 213.079 205.622 212.845C204.628 212.611 203.255 212.494 201.502 212.494L201.327 211.53C201.327 211.53 201.941 211.442 203.168 211.267C204.453 211.092 206.118 210.917 208.164 210.741C210.267 210.566 212.546 210.478 215 210.478V255.442C215 259.591 215.059 262.805 215.176 265.084C215.351 267.363 215.702 268.97 216.227 269.905C216.753 270.781 217.542 271.219 218.594 271.219C219.353 271.219 220.055 271.103 220.698 270.869C221.34 270.577 221.954 270.284 222.538 269.992L222.976 270.869C222.976 270.869 222.392 271.248 221.223 272.008C220.055 272.709 218.448 273.44 216.403 274.199C214.416 274.959 212.196 275.339 209.741 275.339C209.508 274.228 209.245 272.856 208.953 271.219C208.719 269.583 208.602 267.567 208.602 265.171ZM196.331 273.06C198.727 273.06 200.714 272.33 202.291 270.869C203.927 269.408 205.213 267.567 206.148 265.347C207.082 263.126 207.755 260.789 208.164 258.335C208.631 255.881 208.865 253.66 208.865 251.673V238.263C206.352 236.276 203.46 235.283 200.188 235.283C197.383 235.283 195.016 235.926 193.088 237.211C191.218 238.497 189.728 240.162 188.618 242.207C187.566 244.194 186.806 246.327 186.339 248.606C185.871 250.826 185.638 252.901 185.638 254.829C185.638 256.64 185.784 258.627 186.076 260.789C186.427 262.893 186.982 264.879 187.741 266.749C188.501 268.561 189.582 270.08 190.984 271.307C192.387 272.475 194.169 273.06 196.331 273.06ZM267.899 248.255C268.191 245.801 268.834 243.376 269.827 240.98C270.879 238.526 272.281 236.51 274.034 234.932C275.846 233.355 278.066 232.566 280.696 232.566C284.903 232.566 288.087 233.793 290.249 236.247C292.412 238.643 293.492 242.091 293.492 246.59V260.438C293.492 264.412 293.639 267.363 293.931 269.291C294.223 271.219 294.895 272.475 295.947 273.06C296.998 273.586 298.664 273.849 300.943 273.849L301.118 274.901H280.433L280.608 273.849C282.244 273.849 283.529 273.703 284.465 273.411C285.4 273.119 286.071 272.505 286.48 271.57C286.89 270.635 287.123 269.232 287.182 267.363C287.298 265.434 287.357 262.864 287.357 259.65V247.466C287.357 243.668 286.802 240.688 285.692 238.526C284.64 236.364 282.653 235.283 279.731 235.283C277.862 235.283 276.255 235.897 274.911 237.124C273.567 238.351 272.427 239.958 271.492 241.944C270.616 243.873 269.915 245.976 269.389 248.255C268.863 250.534 268.483 252.754 268.249 254.917C268.016 257.02 267.899 258.861 267.899 260.438C267.899 263.477 267.957 265.902 268.074 267.713C268.191 269.466 268.483 270.781 268.951 271.658C269.418 272.534 270.149 273.119 271.142 273.411C272.135 273.703 273.508 273.849 275.261 273.849L275.437 274.901H254.839L255.014 273.849C256.651 273.849 257.936 273.703 258.871 273.411C259.806 273.119 260.478 272.505 260.887 271.57C261.296 270.635 261.529 269.232 261.588 267.363C261.705 265.434 261.763 262.864 261.763 259.65V247.466C261.763 243.668 261.208 240.688 260.098 238.526C259.046 236.364 257.059 235.283 254.138 235.283C252.268 235.283 250.661 235.897 249.317 237.124C247.973 238.351 246.834 239.958 245.899 241.944C245.022 243.873 244.321 245.976 243.795 248.255C243.269 250.534 242.89 252.754 242.656 254.917C242.422 257.02 242.305 258.861 242.305 260.438C242.305 263.477 242.364 265.902 242.48 267.713C242.597 269.466 242.89 270.781 243.357 271.658C243.824 272.534 244.555 273.119 245.548 273.411C246.541 273.703 247.915 273.849 249.668 273.849L249.843 274.901H228.457L228.632 273.849C230.443 273.849 231.846 273.703 232.839 273.411C233.891 273.119 234.651 272.534 235.118 271.658C235.585 270.722 235.878 269.35 235.994 267.538C236.111 265.726 236.17 263.302 236.17 260.263V253.251C236.17 248.985 236.082 245.597 235.907 243.084C235.79 240.571 235.439 238.701 234.855 237.474C234.27 236.247 233.394 235.458 232.225 235.108C231.115 234.699 229.537 234.494 227.492 234.494L227.317 233.53C227.317 233.53 228.047 233.442 229.508 233.267C231.027 233.092 232.927 232.946 235.206 232.829C237.484 232.654 239.851 232.566 242.305 232.566V248.255C242.597 245.801 243.24 243.376 244.233 240.98C245.285 238.526 246.688 236.51 248.441 234.932C250.252 233.355 252.472 232.566 255.102 232.566C259.309 232.566 262.494 233.793 264.656 236.247C266.818 238.701 267.899 242.704 267.899 248.255ZM339.889 246.59V255.442C339.889 259.591 339.947 262.805 340.064 265.084C340.239 267.363 340.59 268.97 341.116 269.905C341.642 270.781 342.431 271.219 343.482 271.219C344.242 271.219 344.943 271.103 345.586 270.869C346.229 270.577 346.843 270.284 347.427 269.992L347.865 270.869C347.865 270.869 347.281 271.248 346.112 272.008C344.943 272.709 343.337 273.44 341.291 274.199C339.305 274.959 337.084 275.339 334.63 275.339C334.396 274.228 334.192 272.593 334.016 270.43C333.841 268.268 333.753 265.989 333.753 263.594C333.111 265.522 332.234 267.421 331.124 269.291C330.072 271.161 328.641 272.709 326.829 273.936C325.018 275.164 322.68 275.777 319.817 275.777C316.37 275.777 313.565 274.813 311.403 272.885C309.241 270.956 308.16 268.268 308.16 264.821C308.16 262.016 309.007 259.562 310.702 257.458C312.396 255.296 315.114 253.631 318.853 252.462C322.593 251.235 327.56 250.622 333.753 250.622V247.466C333.753 244.954 333.52 242.733 333.052 240.805C332.643 238.818 331.796 237.27 330.51 236.16C329.283 235.049 327.472 234.494 325.076 234.494C323.44 234.494 322.155 234.816 321.22 235.458C320.285 236.043 319.525 236.773 318.941 237.65C318.415 238.526 317.947 239.432 317.538 240.367C317.129 241.243 316.633 242.003 316.048 242.646C315.522 243.23 314.763 243.522 313.769 243.522C311.783 243.522 310.789 242.529 310.789 240.542C310.789 238.848 311.49 237.416 312.893 236.247C314.295 235.079 316.107 234.173 318.327 233.53C320.606 232.887 322.972 232.566 325.427 232.566C329.576 232.566 333.023 233.705 335.769 235.984C338.516 238.205 339.889 241.74 339.889 246.59ZM321.22 273.06C323.498 273.06 325.427 272.388 327.004 271.044C328.582 269.7 329.839 267.976 330.773 265.873C331.767 263.769 332.497 261.549 332.965 259.211C333.432 256.816 333.695 254.624 333.753 252.638C329.137 252.696 325.427 253.31 322.622 254.478C319.876 255.647 317.889 257.166 316.662 259.036C315.435 260.906 314.821 262.951 314.821 265.171C314.821 267.334 315.347 269.203 316.399 270.781C317.451 272.3 319.058 273.06 321.22 273.06ZM383.216 265.171C382.69 266.983 381.843 268.707 380.674 270.343C379.564 271.92 378.103 273.235 376.292 274.287C374.48 275.28 372.26 275.777 369.63 275.777C366.65 275.777 364.108 275.134 362.005 273.849C359.96 272.563 358.323 270.898 357.096 268.853C355.869 266.749 354.964 264.47 354.379 262.016C353.853 259.562 353.59 257.166 353.59 254.829C353.59 250.738 354.467 247.028 356.22 243.697C357.973 240.308 360.486 237.62 363.758 235.634C367.03 233.589 370.945 232.566 375.503 232.566C377.139 232.566 378.6 232.683 379.885 232.917C381.229 233.092 382.427 233.326 383.479 233.618V225.291C383.479 222.311 383.42 219.973 383.304 218.279C383.187 216.526 382.894 215.24 382.427 214.422C381.96 213.605 381.229 213.079 380.236 212.845C379.243 212.611 377.869 212.494 376.116 212.494L375.941 211.53C375.941 211.53 376.555 211.442 377.782 211.267C379.067 211.092 380.733 210.917 382.778 210.741C384.881 210.566 387.16 210.478 389.614 210.478V255.442C389.614 259.591 389.673 262.805 389.79 265.084C389.965 267.363 390.316 268.97 390.841 269.905C391.367 270.781 392.156 271.219 393.208 271.219C393.968 271.219 394.669 271.103 395.312 270.869C395.954 270.577 396.568 270.284 397.152 269.992L397.59 270.869C397.59 270.869 397.006 271.248 395.837 272.008C394.669 272.709 393.062 273.44 391.017 274.199C389.03 274.959 386.81 275.339 384.355 275.339C384.122 274.228 383.859 272.856 383.567 271.219C383.333 269.583 383.216 267.567 383.216 265.171ZM370.945 273.06C373.341 273.06 375.327 272.33 376.905 270.869C378.541 269.408 379.827 267.567 380.762 265.347C381.697 263.126 382.369 260.789 382.778 258.335C383.245 255.881 383.479 253.66 383.479 251.673V238.263C380.966 236.276 378.074 235.283 374.802 235.283C371.997 235.283 369.63 235.926 367.702 237.211C365.832 238.497 364.342 240.162 363.232 242.207C362.18 244.194 361.42 246.327 360.953 248.606C360.486 250.826 360.252 252.901 360.252 254.829C360.252 256.64 360.398 258.627 360.69 260.789C361.041 262.893 361.596 264.879 362.355 266.749C363.115 268.561 364.196 270.08 365.598 271.307C367.001 272.475 368.783 273.06 370.945 273.06ZM438.22 252.725H409.471V254.215C409.471 258.598 410.112 262.191 411.399 264.996C412.682 267.801 414.379 269.875 416.482 271.219C418.586 272.563 420.833 273.235 423.231 273.235C425.686 273.235 428.052 272.709 430.331 271.658C432.666 270.547 434.506 268.736 435.853 266.223L437.168 266.924C435.53 270.138 433.339 272.417 430.594 273.761C427.905 275.105 425.012 275.777 421.917 275.777C418.642 275.777 415.546 274.988 412.626 273.411C409.702 271.774 407.335 269.35 405.526 266.136C403.714 262.922 402.809 258.948 402.809 254.215C402.809 250.242 403.538 246.619 405 243.347C406.459 240.075 408.534 237.474 411.224 235.546C413.969 233.559 417.271 232.566 421.128 232.566C424.925 232.566 428.08 233.471 430.594 235.283C433.104 237.095 435.004 239.519 436.291 242.558C437.574 245.597 438.22 248.985 438.22 252.725ZM421.216 234.319C417.65 234.319 414.933 235.838 413.064 238.877C411.192 241.915 410.052 245.684 409.646 250.183H431.471C431.295 245.392 430.419 241.565 428.841 238.701C427.263 235.78 424.722 234.319 421.216 234.319ZM477.849 275.777C475.275 275.777 472.969 275.251 470.925 274.199C468.937 273.089 467.359 271.745 466.192 270.168C465.08 268.59 464.526 267.129 464.526 265.785C464.526 264.675 464.817 263.769 465.403 263.068C466.044 262.367 466.921 262.016 468.032 262.016C469.315 262.016 470.192 262.425 470.662 263.243C471.188 264.003 471.506 264.967 471.626 266.136C471.801 267.304 472.032 268.473 472.327 269.642C472.618 270.81 473.172 271.804 473.992 272.622C474.869 273.381 476.271 273.761 478.2 273.761C484.216 273.761 487.227 269.116 487.227 259.825V233.355C487.227 229.089 487.14 225.7 486.965 223.187C486.845 220.675 486.494 218.805 485.913 217.578C485.387 216.292 484.538 215.474 483.371 215.124C482.259 214.715 480.71 214.51 478.725 214.51L478.55 213.546H502.128L501.953 214.51C499.965 214.51 498.387 214.715 497.22 215.124C496.108 215.474 495.259 216.292 494.678 217.578C494.152 218.805 493.801 220.675 493.626 223.187C493.451 225.7 493.363 229.089 493.363 233.355V255.705C493.363 260.322 492.865 263.973 491.873 266.662C490.877 269.35 489.594 271.366 488.016 272.709C486.439 273.995 484.741 274.813 482.933 275.164C481.18 275.573 479.482 275.777 477.849 275.777ZM541.016 252.725H512.267V254.215C512.267 258.598 512.913 262.191 514.196 264.996C515.482 267.801 517.176 269.875 519.279 271.219C521.383 272.563 523.634 273.235 526.028 273.235C528.482 273.235 530.849 272.709 533.128 271.658C535.467 270.547 537.307 268.736 538.65 266.223L539.965 266.924C538.331 270.138 536.14 272.417 533.391 273.761C530.706 275.105 527.813 275.777 524.714 275.777C521.443 275.777 518.347 274.988 515.423 273.411C512.502 271.774 510.136 269.35 508.323 266.136C506.514 262.922 505.606 258.948 505.606 254.215C505.606 250.242 506.339 246.619 507.797 243.347C509.259 240.075 511.335 237.474 514.02 235.546C516.769 233.559 520.068 232.566 523.925 232.566C527.726 232.566 530.881 233.471 533.391 235.283C535.905 237.095 537.805 239.519 539.088 242.558C540.375 245.597 541.016 248.985 541.016 252.725ZM524.012 234.319C520.451 234.319 517.733 235.838 515.861 238.877C513.992 241.915 512.853 245.684 512.443 250.183H534.267C534.092 245.392 533.216 241.565 531.638 238.701C530.06 235.78 527.518 234.319 524.012 234.319ZM599.228 234.494L599.052 233.442H615.53L615.355 234.494C614.128 234.494 613.136 234.64 612.375 234.932C611.618 235.224 610.917 235.897 610.271 236.948C609.63 238 608.901 239.666 608.08 241.944C607.263 244.165 606.212 247.232 604.925 251.148L597.036 275.164H591.865L580.383 243.522L570.741 275.164H565.57L554.176 246.064C552.773 242.499 551.49 239.899 550.319 238.263C549.152 236.627 548.012 235.605 546.901 235.195C545.793 234.728 544.622 234.494 543.395 234.494L543.22 233.442H564.957L564.781 234.494C562.678 234.494 561.247 234.845 560.486 235.546C559.729 236.189 559.347 237.153 559.347 238.438C559.347 240.016 559.729 242.032 560.486 244.486C561.247 246.94 562.239 249.716 563.467 252.813L570.216 269.817L579.243 240.279C579.012 239.519 578.602 238.701 578.016 237.825C577.49 236.948 576.733 236.189 575.737 235.546C574.805 234.845 573.578 234.494 572.056 234.494L571.881 233.442H592.128L591.953 234.494C589.849 234.494 588.419 234.845 587.658 235.546C586.901 236.189 586.518 237.153 586.518 238.438C586.518 240.016 586.929 242.032 587.745 244.486C588.566 246.94 589.53 249.716 590.638 252.813L596.51 269.817L603.347 248.781C604.168 246.327 604.694 244.37 604.925 242.909C605.22 241.389 605.363 240.162 605.363 239.227C605.363 237.825 604.925 236.685 604.048 235.809C603.172 234.932 601.566 234.494 599.228 234.494ZM653.574 252.725H624.825V254.215C624.825 258.598 625.471 262.191 626.753 264.996C628.04 267.801 629.733 269.875 631.837 271.219C633.941 272.563 636.192 273.235 638.586 273.235C641.04 273.235 643.407 272.709 645.686 271.658C648.024 270.547 649.865 268.736 651.208 266.223L652.522 266.924C650.889 270.138 648.698 272.417 645.949 273.761C643.263 275.105 640.371 275.777 637.271 275.777C634 275.777 630.905 274.988 627.98 273.411C625.06 271.774 622.694 269.35 620.881 266.136C619.072 262.922 618.164 258.948 618.164 254.215C618.164 250.242 618.897 246.619 620.355 243.347C621.817 240.075 623.893 237.474 626.578 235.546C629.327 233.559 632.626 232.566 636.482 232.566C640.283 232.566 643.439 233.471 645.949 235.283C648.463 237.095 650.363 239.519 651.646 242.558C652.933 245.597 653.574 248.985 653.574 252.725ZM636.57 234.319C633.008 234.319 630.291 235.838 628.419 238.877C626.55 241.915 625.411 245.684 625 250.183H646.825C646.65 245.392 645.773 241.565 644.196 238.701C642.618 235.78 640.076 234.319 636.57 234.319ZM674.008 210.391V259.65C674.008 262.864 674.068 265.434 674.184 267.363C674.303 269.232 674.594 270.635 675.06 271.57C675.586 272.505 676.347 273.119 677.339 273.411C678.335 273.703 679.706 273.849 681.459 273.849L681.634 274.901H660.16L660.335 273.849C662.148 273.849 663.55 273.703 664.542 273.411C665.594 273.119 666.355 272.505 666.821 271.57C667.291 270.635 667.582 269.232 667.698 267.363C667.817 265.434 667.873 262.864 667.873 259.65V226.168C667.873 223.012 667.817 220.499 667.698 218.63C667.582 216.76 667.291 215.387 666.821 214.51C666.355 213.634 665.594 213.079 664.542 212.845C663.55 212.553 662.148 212.407 660.335 212.407L660.16 211.442C660.16 211.442 660.805 211.355 662.088 211.179C663.375 211.004 665.068 210.829 667.172 210.654C669.335 210.478 671.614 210.391 674.008 210.391ZM700.287 210.391V259.65C700.287 262.864 700.347 265.434 700.463 267.363C700.578 269.232 700.873 270.635 701.339 271.57C701.865 272.505 702.626 273.119 703.618 273.411C704.61 273.703 705.984 273.849 707.737 273.849L707.913 274.901H686.439L686.614 273.849C688.427 273.849 689.829 273.703 690.821 273.411C691.873 273.119 692.634 272.505 693.1 271.57C693.566 270.635 693.861 269.232 693.977 267.363C694.092 265.434 694.152 262.864 694.152 259.65V226.168C694.152 223.012 694.092 220.499 693.977 218.63C693.861 216.76 693.566 215.387 693.1 214.51C692.634 213.634 691.873 213.079 690.821 212.845C689.829 212.553 688.427 212.407 686.614 212.407L686.439 211.442C686.439 211.442 687.08 211.355 688.367 211.179C689.654 211.004 691.347 210.829 693.451 210.654C695.614 210.478 697.893 210.391 700.287 210.391ZM749.443 252.725H720.694V254.215C720.694 258.598 721.335 262.191 722.622 264.996C723.905 267.801 725.602 269.875 727.706 271.219C729.809 272.563 732.056 273.235 734.455 273.235C736.909 273.235 739.275 272.709 741.554 271.658C743.889 270.547 745.73 268.736 747.076 266.223L748.391 266.924C746.753 270.138 744.562 272.417 741.817 273.761C739.128 275.105 736.236 275.777 733.14 275.777C729.865 275.777 726.769 274.988 723.849 273.411C720.925 271.774 718.558 269.35 716.749 266.136C714.937 262.922 714.032 258.948 714.032 254.215C714.032 250.242 714.761 246.619 716.224 243.347C717.682 240.075 719.757 237.474 722.447 235.546C725.192 233.559 728.494 232.566 732.351 232.566C736.148 232.566 739.303 233.471 741.817 235.283C744.327 237.095 746.228 239.519 747.514 242.558C748.797 245.597 749.443 248.985 749.443 252.725ZM732.439 234.319C728.873 234.319 726.156 235.838 724.287 238.877C722.415 241.915 721.275 245.684 720.869 250.183H742.694C742.518 245.392 741.642 241.565 740.064 238.701C738.486 235.78 735.945 234.319 732.439 234.319ZM784.339 232.128C785.682 232.128 786.941 232.449 788.108 233.092C789.275 233.676 789.861 234.553 789.861 235.721C789.861 236.89 789.482 237.796 788.722 238.438C787.961 239.023 787.172 239.315 786.355 239.315C785.479 239.315 784.718 239.14 784.076 238.789C783.49 238.38 782.821 238 782.06 237.65C781.359 237.24 780.335 237.036 778.992 237.036C777.415 237.036 776.04 238.059 774.873 240.104C773.706 242.091 772.797 244.691 772.156 247.905C771.57 251.119 771.279 254.478 771.279 257.984C771.279 261.666 771.339 264.587 771.455 266.749C771.63 268.911 771.953 270.489 772.419 271.482C772.885 272.475 773.618 273.119 774.61 273.411C775.602 273.703 776.977 273.849 778.73 273.849L778.905 274.901H757.606L757.781 273.849C759.475 273.849 760.821 273.703 761.813 273.411C762.805 273.119 763.538 272.475 764.004 271.482C764.471 270.489 764.765 268.911 764.881 266.749C765.056 264.587 765.144 261.666 765.144 257.984V252.901C765.144 248.635 765.056 245.275 764.881 242.821C764.765 240.308 764.415 238.468 763.829 237.299C763.303 236.13 762.455 235.4 761.287 235.108C760.176 234.757 758.63 234.582 756.642 234.582L756.467 233.618C756.467 233.618 757.196 233.53 758.658 233.355C760.12 233.179 761.961 233.004 764.18 232.829C766.459 232.654 768.825 232.566 771.279 232.566V245.45C771.921 241.302 773.355 238.059 775.574 235.721C777.853 233.326 780.773 232.128 784.339 232.128ZM798.375 293.307C801.471 293.307 803.984 292.109 805.913 289.713C807.841 287.318 809.769 283.753 811.698 279.02L798.638 246.064C797.235 242.499 795.949 239.899 794.781 238.263C793.61 236.627 792.471 235.605 791.363 235.195C790.251 234.728 789.084 234.494 787.857 234.494L787.682 233.442H809.419L809.243 234.494C807.14 234.494 805.706 234.845 804.949 235.546C804.188 236.189 803.809 237.153 803.809 238.438C803.809 240.016 804.188 242.032 804.949 244.486C805.706 246.94 806.702 249.716 807.929 252.813L814.678 269.817L821.514 248.781C822.331 246.327 822.857 244.37 823.092 242.909C823.383 241.389 823.53 240.162 823.53 239.227C823.53 237.825 823.092 236.685 822.216 235.809C821.339 234.932 819.729 234.494 817.395 234.494L817.22 233.442H833.698L833.522 234.494C832.295 234.494 831.299 234.64 830.542 234.932C829.781 235.224 829.08 235.897 828.439 236.948C827.793 238 827.064 239.666 826.247 241.944C825.427 244.165 824.375 247.232 823.092 251.148L815.204 275.164C812.63 283.052 809.622 289.129 806.176 293.395C802.726 297.66 799.132 299.793 795.395 299.793C793.817 299.793 792.443 299.471 791.275 298.829C790.104 298.186 789.522 297.222 789.522 295.936C789.522 294.651 789.901 293.687 790.662 293.044C791.479 292.46 792.239 292.168 792.941 292.168C794.224 292.168 795.188 292.343 795.833 292.693C796.475 293.103 797.323 293.307 798.375 293.307ZM909.427 234.494L909.251 233.442H925.73L925.554 234.494C924.327 234.494 923.331 234.64 922.574 234.932C921.813 235.224 921.112 235.897 920.471 236.948C919.825 238 919.096 239.666 918.279 241.944C917.459 244.165 916.407 247.232 915.124 251.148L907.235 275.164H902.064L890.582 243.522L880.941 275.164H875.769L864.375 246.064C862.973 242.499 861.686 239.899 860.518 238.263C859.347 236.627 858.208 235.605 857.1 235.195C855.989 234.728 854.821 234.494 853.594 234.494L853.419 233.442H875.156L874.98 234.494C872.877 234.494 871.443 234.845 870.686 235.546C869.925 236.189 869.546 237.153 869.546 238.438C869.546 240.016 869.925 242.032 870.686 244.486C871.443 246.94 872.439 249.716 873.666 252.813L880.415 269.817L889.443 240.279C889.208 239.519 888.797 238.701 888.216 237.825C887.69 236.948 886.929 236.189 885.937 235.546C885 234.845 883.773 234.494 882.255 234.494L882.08 233.442H902.327L902.152 234.494C900.048 234.494 898.614 234.845 897.857 235.546C897.096 236.189 896.718 237.153 896.718 238.438C896.718 240.016 897.124 242.032 897.945 244.486C898.761 246.94 899.726 249.716 900.837 252.813L906.71 269.817L913.546 248.781C914.363 246.327 914.889 244.37 915.124 242.909C915.415 241.389 915.562 240.162 915.562 239.227C915.562 237.825 915.124 236.685 914.247 235.809C913.371 234.932 911.761 234.494 909.427 234.494ZM947.821 232.566C952.028 232.566 955.622 233.559 958.602 235.546C961.638 237.474 963.949 240.075 965.526 243.347C967.16 246.619 967.98 250.242 967.98 254.215C967.98 258.13 967.192 261.724 965.614 264.996C964.092 268.268 961.873 270.898 958.953 272.885C956.028 274.813 952.495 275.777 948.347 275.777C944.255 275.777 940.69 274.813 937.654 272.885C934.674 270.898 932.363 268.268 930.729 264.996C929.152 261.724 928.363 258.13 928.363 254.215C928.363 250.242 929.12 246.619 930.642 243.347C932.16 240.075 934.379 237.474 937.303 235.546C940.224 233.559 943.73 232.566 947.821 232.566ZM948.347 274.024C951.327 274.024 953.781 273.148 955.71 271.395C957.638 269.583 959.04 267.187 959.917 264.207C960.849 261.169 961.319 257.838 961.319 254.215C961.319 250.534 960.821 247.203 959.829 244.223C958.833 241.185 957.343 238.789 955.359 237.036C953.371 235.224 950.889 234.319 947.909 234.319C944.985 234.319 942.562 235.224 940.634 237.036C938.706 238.789 937.271 241.185 936.339 244.223C935.463 247.203 935.024 250.534 935.024 254.215C935.024 257.838 935.518 261.169 936.514 264.207C937.506 267.187 938.997 269.583 940.985 271.395C942.969 273.148 945.423 274.024 948.347 274.024ZM1002.01 232.128C1003.35 232.128 1004.61 232.449 1005.78 233.092C1006.94 233.676 1007.53 234.553 1007.53 235.721C1007.53 236.89 1007.15 237.796 1006.39 238.438C1005.63 239.023 1004.84 239.315 1004.02 239.315C1003.15 239.315 1002.39 239.14 1001.75 238.789C1001.16 238.38 1000.49 238 999.73 237.65C999.028 237.24 998.004 237.036 996.662 237.036C995.084 237.036 993.71 238.059 992.542 240.104C991.371 242.091 990.467 244.691 989.825 247.905C989.239 251.119 988.949 254.478 988.949 257.984C988.949 261.666 989.004 264.587 989.124 266.749C989.299 268.911 989.618 270.489 990.088 271.482C990.554 272.475 991.283 273.119 992.279 273.411C993.271 273.703 994.646 273.849 996.399 273.849L996.574 274.901H975.275L975.451 273.849C977.144 273.849 978.487 273.703 979.483 273.411C980.475 273.119 981.204 272.475 981.674 271.482C982.14 270.489 982.431 268.911 982.55 266.749C982.726 264.587 982.813 261.666 982.813 257.984V252.901C982.813 248.635 982.726 245.275 982.55 242.821C982.431 240.308 982.08 238.468 981.498 237.299C980.973 236.13 980.124 235.4 978.957 235.108C977.845 234.757 976.295 234.582 974.311 234.582L974.136 233.618C974.136 233.618 974.865 233.53 976.327 233.355C977.785 233.179 979.626 233.004 981.849 232.829C984.128 232.654 986.494 232.566 988.949 232.566V245.45C989.59 241.302 991.02 238.059 993.243 235.721C995.522 233.326 998.443 232.128 1002.01 232.128ZM1027.44 251.936C1029.83 252.228 1031.91 252.988 1033.66 254.215C1035.47 255.384 1037.05 256.786 1038.39 258.422C1039.8 260.059 1041.08 261.782 1042.25 263.594C1043.48 265.347 1044.73 267.012 1046.02 268.59C1047.3 270.167 1048.71 271.453 1050.23 272.446C1051.81 273.381 1053.65 273.849 1055.75 273.849L1055.92 274.901H1047.16C1045.29 274.901 1043.53 274.199 1041.9 272.797C1040.26 271.395 1038.71 269.642 1037.26 267.538C1035.79 265.376 1034.33 263.243 1032.87 261.14C1031.47 258.977 1030.01 257.108 1028.49 255.53C1026.97 253.952 1025.34 253.047 1023.58 252.813V260.438C1023.58 264.412 1023.7 267.363 1023.93 269.291C1024.22 271.219 1024.9 272.475 1025.95 273.06C1027 273.586 1028.67 273.849 1030.94 273.849L1031.12 274.901H1009.73L1009.91 273.849C1011.72 273.849 1013.12 273.703 1014.12 273.411C1015.17 273.119 1015.92 272.505 1016.39 271.57C1016.86 270.577 1017.15 269.145 1017.27 267.275C1017.39 265.347 1017.45 262.805 1017.45 259.65V226.08C1017.45 222.924 1017.39 220.441 1017.27 218.63C1017.15 216.76 1016.86 215.387 1016.39 214.51C1015.92 213.634 1015.17 213.079 1014.12 212.845C1013.12 212.611 1011.72 212.494 1009.91 212.494L1009.73 211.442C1009.73 211.442 1010.37 211.355 1011.66 211.179C1012.94 211.004 1014.64 210.858 1016.75 210.741C1018.9 210.566 1021.18 210.478 1023.58 210.478V251.323C1025.39 251.206 1027.14 250.651 1028.84 249.658C1030.53 248.606 1032.05 247.35 1033.4 245.889C1034.8 244.369 1035.88 242.85 1036.64 241.331C1037.46 239.753 1037.87 238.351 1037.87 237.124C1037.87 236.13 1037.61 235.429 1037.08 235.02C1036.61 234.611 1035.73 234.407 1034.45 234.407L1034.28 233.442H1052.94L1052.77 234.407C1051.66 234.407 1050.26 234.582 1048.56 234.932C1046.92 235.224 1045.43 236.043 1044.09 237.387C1041.34 240.133 1039.1 242.499 1037.34 244.486C1035.59 246.473 1033.95 248.109 1032.43 249.395C1030.97 250.622 1029.31 251.469 1027.44 251.936ZM1069.99 273.235C1072.85 273.235 1075.16 272.593 1076.91 271.307C1078.67 270.021 1079.54 268.239 1079.54 265.96C1079.54 264.032 1079.02 262.483 1077.96 261.315C1076.91 260.146 1075.57 259.153 1073.93 258.335C1072.3 257.517 1070.54 256.728 1068.67 255.968C1066.86 255.209 1065.14 254.362 1063.5 253.426C1061.86 252.433 1060.52 251.177 1059.47 249.658C1058.42 248.08 1057.89 246.093 1057.89 243.697C1057.89 241.302 1058.53 239.286 1059.82 237.65C1061.16 235.955 1062.86 234.699 1064.9 233.881C1067.01 233.004 1069.17 232.566 1071.39 232.566C1073.49 232.566 1075.69 232.8 1077.96 233.267C1080.3 233.734 1082.08 234.319 1083.31 235.02C1083.31 236.89 1083.19 238.848 1082.96 240.893C1082.73 242.938 1082.49 244.72 1082.26 246.239L1081.21 245.976C1081.21 243.23 1080.77 241.068 1079.89 239.49C1079.02 237.854 1077.85 236.685 1076.39 235.984C1074.98 235.283 1073.46 234.932 1071.83 234.932C1069.78 234.932 1067.97 235.546 1066.39 236.773C1064.82 238 1064.03 239.899 1064.03 242.47C1064.03 244.223 1064.55 245.655 1065.61 246.765C1066.66 247.875 1068 248.84 1069.64 249.658C1071.27 250.417 1073 251.177 1074.81 251.936C1076.68 252.696 1078.43 253.573 1080.07 254.566C1081.7 255.559 1083.05 256.816 1084.1 258.335C1085.15 259.796 1085.68 261.695 1085.68 264.032C1085.68 266.662 1084.98 268.853 1083.57 270.606C1082.17 272.3 1080.3 273.586 1077.96 274.462C1075.69 275.339 1073.23 275.777 1070.6 275.777C1068.44 275.777 1066.16 275.485 1063.77 274.901C1061.43 274.258 1059.41 273.294 1057.72 272.008C1057.72 270.138 1057.81 268.327 1057.98 266.574C1058.16 264.762 1058.36 263.126 1058.59 261.666L1059.65 261.841C1059.65 264.587 1060.17 266.808 1061.22 268.502C1062.28 270.138 1063.59 271.336 1065.17 272.096C1066.75 272.856 1068.35 273.235 1069.99 273.235Z" fill="url(#paint0_linear_2447_11)"/>
<path fill-rule="evenodd" clip-rule="evenodd" d="M561.755 135.655C561.755 136.204 561.309 136.652 560.711 136.652H551.683C551.138 136.652 550.691 136.204 550.691 135.655C550.691 118.008 541.811 100.56 527.52 89.8919L495.416 123.941C495.353 124.007 495.285 124.057 495.217 124.09C495.185 124.123 495.154 124.14 495.122 124.14C495.086 124.173 495.038 124.206 494.97 124.239C494.871 124.273 494.771 124.29 494.671 124.29C494.671 124.29 494.656 124.29 494.624 124.29C494.524 124.29 494.424 124.273 494.325 124.239C494.293 124.239 494.277 124.239 494.277 124.239C494.245 124.239 494.225 124.223 494.225 124.19C494.193 124.19 494.177 124.19 494.177 124.19C494.177 124.19 494.162 124.173 494.126 124.14C494.094 124.14 494.078 124.14 494.078 124.14C494.078 124.14 494.062 124.14 494.03 124.14C493.994 124.107 493.962 124.057 493.93 123.99C493.93 123.99 493.911 123.99 493.879 123.99L461.875 90.0417C447.488 100.76 438.556 118.108 438.556 135.655C438.556 136.204 438.11 136.652 437.516 136.652H428.536C427.99 136.652 427.492 136.204 427.492 135.655C427.492 114.02 437.217 94.4784 454.138 81.866L438.803 65.6146C438.803 65.5812 438.803 65.5644 438.803 65.5644C438.771 65.5314 438.755 65.5146 438.755 65.5146C438.687 65.4481 438.64 65.3819 438.608 65.3154C438.608 65.2819 438.608 65.2489 438.608 65.2158C438.572 65.1823 438.556 65.1493 438.556 65.1158C438.556 65.0827 438.556 65.0493 438.556 65.0162C438.556 64.9831 438.54 64.9664 438.508 64.9664C438.508 64.9329 438.508 64.9166 438.508 64.9166C438.508 64.8166 438.524 64.7337 438.556 64.6672C438.556 64.6341 438.556 64.6174 438.556 64.6174C438.592 64.5843 438.608 64.5509 438.608 64.5178C438.64 64.4513 438.671 64.4015 438.707 64.368C438.707 64.3349 438.707 64.3182 438.707 64.3182C438.739 64.2851 438.755 64.2684 438.755 64.2684L454.783 44.6768C454.783 44.6437 454.783 44.627 454.783 44.627C454.783 44.627 454.799 44.627 454.831 44.627C454.831 44.627 454.831 44.6106 454.831 44.5772C454.831 44.5772 454.847 44.5772 454.883 44.5772C454.914 44.5441 454.946 44.5106 454.978 44.4776C454.978 44.4776 454.998 44.4608 455.03 44.4278C455.03 44.4278 455.046 44.4278 455.078 44.4278C455.078 44.3943 455.094 44.378 455.13 44.378C455.162 44.378 455.193 44.3612 455.229 44.3278C455.261 44.3278 455.277 44.3278 455.277 44.3278L477.058 38.2959C477.158 38.2627 477.257 38.2461 477.357 38.2461H511.891C511.99 38.2461 512.09 38.2627 512.189 38.2959L533.97 44.3278C534.034 44.3612 534.086 44.378 534.118 44.378C534.154 44.411 534.169 44.4278 534.169 44.4278C534.201 44.4278 534.217 44.4278 534.217 44.4278C534.217 44.4608 534.233 44.4776 534.269 44.4776C534.301 44.5106 534.333 44.5441 534.365 44.5772C534.365 44.5772 534.385 44.5772 534.416 44.5772C534.416 44.6106 534.416 44.627 534.416 44.627C534.416 44.627 534.432 44.627 534.464 44.627C534.464 44.627 534.464 44.6437 534.464 44.6768L550.492 64.2684C550.492 64.2684 550.492 64.2851 550.492 64.3182C550.524 64.3182 550.54 64.3182 550.54 64.3182C550.54 64.3182 550.54 64.3349 550.54 64.368C550.576 64.4015 550.608 64.4513 550.64 64.5178C550.64 64.5509 550.656 64.5843 550.691 64.6174C550.691 64.6174 550.691 64.6341 550.691 64.6672C550.691 64.7337 550.691 64.8166 550.691 64.9166C550.691 64.9166 550.691 64.9329 550.691 64.9664C550.691 64.9664 550.691 64.9831 550.691 65.0162C550.691 65.0493 550.691 65.0827 550.691 65.1158C550.691 65.1493 550.675 65.1823 550.64 65.2158C550.64 65.2489 550.64 65.2819 550.64 65.3154C550.608 65.3819 550.56 65.4481 550.492 65.5146C550.492 65.5146 550.476 65.5314 550.444 65.5644C550.444 65.5644 550.444 65.5812 550.444 65.6146L535.11 81.866C551.982 94.4286 561.656 113.87 561.755 135.456C561.755 135.523 561.755 135.589 561.755 135.655ZM460.436 88.5461L455.524 83.3616C439.253 95.3756 429.875 113.97 429.528 134.609H436.524C436.871 116.911 445.95 99.4134 460.436 88.5461ZM533.918 47.2194L533.823 47.0696L529.552 54.2983L515.365 78.3764L527.321 73.2915L548.062 64.468L533.918 47.2194ZM491.401 118.457L475.52 81.3174L443.616 67.758L491.401 118.457ZM463.464 73.9895L473.835 78.4262L458.751 52.8525L455.377 47.1198L441.138 64.5178L463.464 73.9895ZM479.839 56.4915L494.576 60.031L509.361 56.4915L494.576 46.621L479.839 56.4915ZM477.456 77.878L492.687 61.6262L478.301 58.1867L477.456 77.878ZM511.146 80.121L494.671 62.5736L478.15 80.121L494.671 85.7047L511.146 80.121ZM511.839 77.878L510.946 58.2365L496.608 61.6764L511.839 77.878ZM476.317 57.5385L458.305 47.9174L475.472 77.0804L476.317 57.5385ZM478.15 82.2648L494.624 120.75L511.098 82.2648L494.97 87.6987C494.723 87.7983 494.524 87.7983 494.277 87.6987L478.15 82.2648ZM523.154 61.2776L530.994 47.9672L512.982 57.5385L513.827 77.0804L523.154 61.2776ZM511.938 40.4397L500.628 44.4278L526.229 44.378L511.938 40.4397ZM498.146 46.4716L511.938 55.7939L519.432 51.8557L529.552 46.4716H498.146ZM491.102 46.4716L459.695 46.4218L469.815 51.8557L477.309 55.7939L491.102 46.4716ZM488.62 44.4278L477.309 40.4895L463.066 44.4278H488.62ZM505.887 40.3895H483.313L494.476 44.3278C494.576 44.2947 494.671 44.2947 494.771 44.3278L505.887 40.3895ZM497.799 118.507L545.58 67.8078L521.118 78.227L513.675 81.3676L505.687 99.962L497.799 118.507ZM559.719 134.708C559.424 114.07 549.994 95.4752 533.723 83.4612L528.911 88.4963C543.349 99.3636 552.377 116.862 552.723 134.708H559.719Z" fill="url(#paint1_linear_2447_11)"/>
<path d="M28.0886 138.327C26.0169 138.327 24.3038 138.248 22.9492 138.088C21.6743 137.929 20.3994 137.73 19.1245 137.491C17.8496 137.252 16.2958 137.052 14.4631 136.893C12.6305 136.734 10.1205 136.654 6.93327 136.654L2.75 105.578H4.18426C5.37948 115.379 8.08865 122.949 12.3118 128.287C16.6145 133.546 22.1125 136.176 28.8058 136.176C33.746 136.176 37.7699 134.781 40.8775 131.993C43.9851 129.204 45.5388 125.578 45.5388 121.116C45.5388 119.204 45.1803 117.371 44.4631 115.618C43.8257 113.865 42.7102 111.993 41.1165 110.001C39.5229 108.009 37.4114 105.857 34.7819 103.546C32.1524 101.156 28.8855 98.4866 24.9811 95.5384L20.0807 91.8333C14.1046 87.2914 9.96116 83.2277 7.6504 79.642C5.33964 76.0564 4.18426 72.152 4.18426 67.9289C4.18426 60.9169 6.73406 55.4189 11.8337 51.4348C17.0129 47.3711 23.8257 45.3392 32.2719 45.3392C34.3436 45.3392 36.0169 45.4189 37.2918 45.5783C38.6464 45.7376 39.9213 45.9368 41.1165 46.1759C42.3914 46.4149 43.8655 46.6141 45.5388 46.7735C47.2121 46.9329 49.3635 47.0125 51.993 47.0125L53.1882 71.156H51.993C50.8775 63.7456 48.487 57.889 44.8217 53.5862C41.1564 49.2835 36.7341 47.1321 31.5548 47.1321C27.8894 47.1321 24.9412 48.2078 22.7102 50.3592C20.5588 52.5105 19.4831 55.3791 19.4831 58.9647C19.4831 62.0723 20.4791 65.0603 22.4711 67.9289C24.5428 70.7177 28.0886 73.9847 33.1086 77.7297L38.248 81.5544C43.507 85.3791 47.6504 88.9249 50.6783 92.1918C53.7859 95.3791 56.0169 98.4866 57.3715 101.515C58.7261 104.542 59.4034 107.77 59.4034 111.196C59.4034 116.455 58.0886 121.116 55.4592 125.18C52.8297 129.244 49.1643 132.431 44.4631 134.742C39.8416 136.973 34.3835 138.168 28.0886 138.327ZM61.1795 136.654V135.459H61.299C64.1675 135.459 66.4783 134.582 68.2313 132.829C69.9843 131.076 70.8608 128.766 70.8608 125.897V86.6938C70.8608 83.6659 70.2233 81.3153 68.9484 79.642C67.7532 77.9687 65.1635 77.1321 61.1795 77.1321V75.9368H73.0121C77.2353 75.9368 80.4225 75.5384 82.5739 74.7416C84.7253 73.8651 86.2392 72.7496 87.1157 71.395H87.7133L87.8329 90.9966C88.8687 88.6062 90.1835 86.0962 91.7771 83.4667C93.4504 80.8372 95.5221 78.646 97.9922 76.893C100.542 75.0603 103.57 74.144 107.076 74.144C108.271 74.144 109.546 74.2635 110.901 74.5026C112.255 74.7416 113.689 75.1799 115.203 75.8173L110.542 89.8014C107.674 88.2078 105.164 87.0922 103.012 86.4548C100.94 85.8173 99.1078 85.4986 97.5141 85.4986C94.805 85.4986 92.7731 86.3352 91.4185 88.0086C90.1436 89.6819 89.0281 91.6739 88.0719 93.9846V125.897C88.0719 128.766 88.9484 131.076 90.7014 132.829C92.4544 134.582 94.7651 135.459 97.6337 135.459H97.7532V136.654H61.1795ZM115.457 136.654V135.459H115.577C118.445 135.459 120.756 134.582 122.509 132.829C124.262 131.076 125.138 128.766 125.138 125.897V86.6938C125.138 83.6659 124.501 81.3153 123.226 79.642C122.031 77.9687 119.441 77.1321 115.457 77.1321V75.9368H127.648C131.712 75.9368 134.82 75.4986 136.971 74.6221C138.963 73.7456 140.358 72.6699 141.154 71.395H142.35V125.897C142.35 128.766 143.226 131.076 144.979 132.829C146.732 134.582 149.043 135.459 151.911 135.459H152.031V136.654H115.457ZM133.624 63.8651C130.756 63.8651 128.366 62.9488 126.453 61.1161C124.621 59.2038 123.704 56.8133 123.704 53.9448C123.704 51.0763 124.621 48.7257 126.453 46.893C128.366 44.9807 130.756 44.0245 133.624 44.0245C136.413 44.0245 138.724 44.9807 140.557 46.893C142.469 48.8054 143.425 51.156 143.425 53.9448C143.425 56.7336 142.469 59.0843 140.557 60.9966C138.724 62.909 136.413 63.8651 133.624 63.8651ZM196.281 141.196L196.162 124.224C194.249 128.367 191.381 131.793 187.556 134.503C183.731 137.132 179.628 138.447 175.245 138.447C170.942 138.447 167.078 137.092 163.652 134.383C160.225 131.674 157.516 127.969 155.524 123.268C153.532 118.487 152.536 113.108 152.536 107.132C152.536 100.439 153.771 94.6221 156.241 89.6819C158.791 84.7416 162.297 80.9568 166.759 78.3273C171.221 75.6181 176.361 74.2635 182.177 74.2635C185.444 74.2635 188.114 74.7815 190.185 75.8173C192.257 76.7735 194.13 78.4468 195.803 80.8372V57.7695C195.803 54.901 194.887 52.5902 193.054 50.8372C191.301 49.0842 188.99 48.2078 186.122 48.2078V47.0125H198.313C202.297 47.0125 205.325 46.6141 207.397 45.8173C209.468 45.0205 210.942 43.905 211.819 42.4707H213.014V125.897C213.014 128.766 213.891 131.076 215.644 132.829C217.397 134.582 219.747 135.459 222.695 135.459V136.654H210.504C206.998 136.654 204.209 137.013 202.138 137.73C200.146 138.447 198.592 139.602 197.476 141.196H196.281ZM181.819 133.666C183.652 133.666 185.484 133.108 187.317 131.993C189.229 130.797 190.942 129.244 192.456 127.331C193.97 125.419 195.086 123.387 195.803 121.236V92.0723C195.405 87.2914 194.209 83.4667 192.217 80.5982C190.305 77.7297 187.795 76.2954 184.687 76.2954C180.544 76.2954 177.317 78.9249 175.006 84.1839C172.775 89.4428 171.66 97.2117 171.66 107.491C171.66 124.941 175.046 133.666 181.819 133.666ZM251.12 138.088C245.622 138.088 240.722 136.734 236.419 134.024C232.196 131.315 228.889 127.57 226.499 122.789C224.108 117.929 222.913 112.391 222.913 106.176C222.913 99.8014 224.228 94.2237 226.857 89.4428C229.487 84.6619 233.072 80.9568 237.614 78.3273C242.236 75.6181 247.455 74.2635 253.271 74.2635C258.132 74.2635 262.435 75.2197 266.18 77.1321C270.005 79.0444 273.032 81.7536 275.264 85.2595C277.574 88.6858 278.889 92.6699 279.208 97.2117L279.327 99.0046H239.168V99.6022C239.168 108.048 241.04 114.821 244.785 119.921C248.53 124.941 253.55 127.451 259.845 127.451C263.67 127.451 267.295 126.534 270.722 124.702C274.228 122.789 277.056 120.24 279.208 117.052L280.283 117.411C278.929 121.475 276.817 125.06 273.949 128.168C271.08 131.275 267.694 133.706 263.789 135.459C259.885 137.212 255.662 138.088 251.12 138.088ZM239.287 97.2117H263.55C263.55 90.9169 262.515 85.8173 260.443 81.9129C258.451 78.0086 255.622 76.0564 251.957 76.0564C248.451 76.0564 245.542 77.9687 243.232 81.7934C240.921 85.6181 239.606 90.7576 239.287 97.2117ZM310.536 138.566L286.751 83.5862C285.954 81.7536 284.878 80.2396 283.524 79.0444C282.249 77.8492 280.456 77.2117 278.145 77.1321V75.9368H311.611V77.1321C308.822 77.4508 306.99 78.6858 306.113 80.8372C305.317 82.9886 305.595 85.6978 306.95 88.9647L319.261 117.77L331.452 89.6819C332.249 87.8492 332.647 86.0564 332.647 84.3034C332.647 82.3113 332.05 80.6779 330.854 79.403C329.659 78.1281 327.986 77.3711 325.834 77.1321V75.9368H344.719V77.1321C342.647 77.6101 340.655 78.8054 338.743 80.7177C336.83 82.6301 335.117 85.2595 333.603 88.6062L311.611 138.566H310.536ZM340.728 136.654V135.459H340.848C343.716 135.459 346.027 134.582 347.78 132.829C349.533 131.076 350.409 128.766 350.409 125.897V86.6938C350.409 83.6659 349.772 81.3153 348.497 79.642C347.302 77.9687 344.712 77.1321 340.728 77.1321V75.9368H352.919C356.983 75.9368 360.091 75.4986 362.242 74.6221C364.234 73.7456 365.628 72.6699 366.425 71.395H367.62V125.897C367.62 128.766 368.497 131.076 370.25 132.829C372.003 134.582 374.314 135.459 377.182 135.459H377.302V136.654H340.728ZM358.895 63.8651C356.027 63.8651 353.636 62.9488 351.724 61.1161C349.891 59.2038 348.975 56.8133 348.975 53.9448C348.975 51.0763 349.891 48.7257 351.724 46.893C353.636 44.9807 356.027 44.0245 358.895 44.0245C361.684 44.0245 363.995 44.9807 365.828 46.893C367.74 48.8054 368.696 51.156 368.696 53.9448C368.696 56.7336 367.74 59.0843 365.828 60.9966C363.995 62.909 361.684 63.8651 358.895 63.8651Z" fill="url(#paint2_linear_2447_11)"/>
<path d="M612.471 159.005L612.352 157.929C615.698 157.61 618.367 154.861 620.36 149.682C622.352 144.503 623.348 137.69 623.348 129.244V57.7695C623.348 54.901 622.471 52.5902 620.718 50.8372C618.965 49.0842 616.654 48.2078 613.786 48.2078H613.547V47.0125H651.077V48.2078H650.957C648.089 48.2078 645.778 49.0842 644.025 50.8372C642.272 52.5902 641.395 54.901 641.395 57.7695V129.244C641.395 134.662 640.16 139.522 637.69 143.825C635.3 148.128 631.913 151.594 627.531 154.224C623.228 156.853 618.208 158.447 612.471 159.005ZM679.196 138.088C673.698 138.088 668.798 136.734 664.495 134.024C660.272 131.315 656.965 127.57 654.575 122.789C652.184 117.929 650.989 112.391 650.989 106.176C650.989 99.8014 652.304 94.2237 654.933 89.4428C657.563 84.6619 661.148 80.9568 665.69 78.3273C670.312 75.6181 675.531 74.2635 681.348 74.2635C686.208 74.2635 690.511 75.2197 694.256 77.1321C698.081 79.0444 701.109 81.7536 703.34 85.2595C705.65 88.6858 706.965 92.6699 707.284 97.2117L707.403 99.0046H667.244V99.6022C667.244 108.048 669.117 114.821 672.862 119.921C676.607 124.941 681.626 127.451 687.921 127.451C691.746 127.451 695.371 126.534 698.798 124.702C702.304 122.789 705.132 120.24 707.284 117.052L708.36 117.411C707.005 121.475 704.893 125.06 702.025 128.168C699.156 131.275 695.77 133.706 691.865 135.459C687.961 137.212 683.738 138.088 679.196 138.088ZM667.363 97.2117H691.626C691.626 90.9169 690.591 85.8173 688.519 81.9129C686.527 78.0086 683.698 76.0564 680.033 76.0564C676.527 76.0564 673.618 77.9687 671.308 81.7934C668.997 85.6181 667.682 90.7576 667.363 97.2117ZM738.372 138.566L714.706 83.5862C713.909 81.6739 712.834 80.1599 711.479 79.0444C710.124 77.8492 708.292 77.2117 705.981 77.1321V75.9368H739.567V77.1321C736.778 77.4508 734.945 78.6858 734.069 80.8372C733.192 82.9886 733.471 85.6978 734.905 88.9647L747.216 117.77L756.539 96.136L751.638 83.5862C750.921 81.7536 749.965 80.2396 748.77 79.0444C747.575 77.8492 745.941 77.2117 743.869 77.1321V75.9368H773.989V77.1321C771.439 77.4508 769.766 78.6858 768.969 80.8372C768.252 82.9886 768.531 85.6978 769.806 88.9647L780.802 117.77L791.798 89.6819C792.196 88.646 792.475 87.6898 792.634 86.8133C792.794 85.9368 792.873 85.1002 792.873 84.3034C792.873 82.3113 792.356 80.6779 791.32 79.403C790.284 78.1281 788.77 77.3711 786.778 77.1321V75.9368H803.75V77.1321C801.917 77.6101 800.124 78.8054 798.372 80.7177C796.619 82.6301 795.065 85.2595 793.71 88.6062L773.989 138.566H773.033L757.256 98.1679L739.567 138.566H738.372ZM826.499 138.088C821.001 138.088 816.101 136.734 811.798 134.024C807.575 131.315 804.268 127.57 801.877 122.789C799.487 117.929 798.292 112.391 798.292 106.176C798.292 99.8014 799.607 94.2237 802.236 89.4428C804.866 84.6619 808.451 80.9568 812.993 78.3273C817.615 75.6181 822.834 74.2635 828.65 74.2635C833.511 74.2635 837.814 75.2197 841.559 77.1321C845.383 79.0444 848.411 81.7536 850.642 85.2595C852.953 88.6858 854.268 92.6699 854.587 97.2117L854.706 99.0046H814.547V99.6022C814.547 108.048 816.419 114.821 820.164 119.921C823.909 124.941 828.929 127.451 835.224 127.451C839.049 127.451 842.674 126.534 846.101 124.702C849.607 122.789 852.435 120.24 854.587 117.052L855.662 117.411C854.308 121.475 852.196 125.06 849.328 128.168C846.459 131.275 843.073 133.706 839.168 135.459C835.264 137.212 831.041 138.088 826.499 138.088ZM814.666 97.2117H838.929C838.929 90.9169 837.893 85.8173 835.822 81.9129C833.83 78.0086 831.001 76.0564 827.336 76.0564C823.83 76.0564 820.921 77.9687 818.611 81.7934C816.3 85.6181 814.985 90.7576 814.666 97.2117ZM854.34 136.654V135.459C857.208 135.459 859.519 134.622 861.272 132.949C863.105 131.196 864.021 128.845 864.021 125.897V57.7695C864.021 54.901 863.105 52.5902 861.272 50.8372C859.519 49.0842 857.208 48.2078 854.34 48.2078V47.0125H866.531C870.595 47.0125 873.702 46.5743 875.854 45.6978C877.846 44.8213 879.24 43.7456 880.037 42.4707H881.232V125.897C881.232 128.845 882.109 131.196 883.862 132.949C885.694 134.622 888.045 135.459 890.913 135.459V136.654H854.34ZM889.475 136.654V135.459C892.344 135.459 894.654 134.622 896.407 132.949C898.24 131.196 899.156 128.845 899.156 125.897V57.7695C899.156 54.901 898.24 52.5902 896.407 50.8372C894.654 49.0842 892.344 48.2078 889.475 48.2078V47.0125H901.666C905.73 47.0125 908.838 46.5743 910.989 45.6978C912.981 44.8213 914.376 43.7456 915.172 42.4707H916.368V125.897C916.368 128.845 917.244 131.196 918.997 132.949C920.83 134.622 923.18 135.459 926.049 135.459V136.654H889.475ZM954.423 138.088C948.925 138.088 944.025 136.734 939.722 134.024C935.499 131.315 932.192 127.57 929.802 122.789C927.411 117.929 926.216 112.391 926.216 106.176C926.216 99.8014 927.531 94.2237 930.16 89.4428C932.79 84.6619 936.375 80.9568 940.917 78.3273C945.539 75.6181 950.758 74.2635 956.575 74.2635C961.435 74.2635 965.738 75.2197 969.483 77.1321C973.308 79.0444 976.336 81.7536 978.567 85.2595C980.877 88.6858 982.192 92.6699 982.511 97.2117L982.63 99.0046H942.471V99.6022C942.471 108.048 944.344 114.821 948.089 119.921C951.834 124.941 956.854 127.451 963.148 127.451C966.973 127.451 970.599 126.534 974.025 124.702C977.531 122.789 980.36 120.24 982.511 117.052L983.587 117.411C982.232 121.475 980.12 125.06 977.252 128.168C974.383 131.275 970.997 133.706 967.093 135.459C963.188 137.212 958.965 138.088 954.423 138.088ZM942.591 97.2117H966.854C966.854 90.9169 965.818 85.8173 963.746 81.9129C961.754 78.0086 958.925 76.0564 955.26 76.0564C951.754 76.0564 948.846 77.9687 946.535 81.7934C944.224 85.6181 942.909 90.7576 942.591 97.2117ZM984.152 136.654V135.459H984.272C987.14 135.459 989.451 134.582 991.204 132.829C992.957 131.076 993.834 128.766 993.834 125.897V86.6938C993.834 83.6659 993.196 81.3153 991.921 79.642C990.726 77.9687 988.136 77.1321 984.152 77.1321V75.9368H995.985C1000.21 75.9368 1003.4 75.5384 1005.55 74.7416C1007.7 73.8651 1009.21 72.7496 1010.09 71.395H1010.69L1010.81 90.9966C1011.84 88.6062 1013.16 86.0962 1014.75 83.4667C1016.42 80.8372 1018.5 78.646 1020.97 76.893C1023.51 75.0603 1026.54 74.144 1030.05 74.144C1031.24 74.144 1032.52 74.2635 1033.87 74.5026C1035.23 74.7416 1036.66 75.1799 1038.18 75.8173L1033.51 89.8014C1030.65 88.2078 1028.14 87.0922 1025.99 86.4548C1023.91 85.8173 1022.08 85.4986 1020.49 85.4986C1017.78 85.4986 1015.75 86.3352 1014.39 88.0085C1013.12 89.6819 1012 91.6739 1011.04 93.9846V125.897C1011.04 128.766 1011.92 131.076 1013.67 132.829C1015.43 134.582 1017.74 135.459 1020.61 135.459H1020.73V136.654H984.152ZM1039.03 163.427C1035.76 163.427 1032.61 162.789 1029.59 161.515L1034.25 147.53C1036.24 148.327 1038.39 149.005 1040.7 149.562C1043.09 150.12 1045.48 150.399 1047.87 150.399C1050.9 150.399 1053.73 149.762 1056.36 148.487C1059.07 147.291 1061.1 145.02 1062.46 141.674L1063.77 138.447L1040.1 83.5862C1039.31 81.6739 1038.27 80.1599 1037 79.0444C1035.64 77.8492 1033.81 77.2117 1031.5 77.1321V75.9368H1066.04V77.1321C1063.89 77.3711 1062.22 78.1281 1061.02 79.403C1059.91 80.6779 1059.35 82.3113 1059.35 84.3034C1059.35 86.0564 1059.75 87.8492 1060.54 89.6819L1072.61 118.009L1084.69 89.6819C1085.48 87.8492 1085.88 86.0564 1085.88 84.3034C1085.88 82.3113 1085.28 80.6779 1084.09 79.403C1082.97 78.1281 1081.3 77.3711 1079.07 77.1321V75.9368H1095.56V77.1321C1093.73 77.5305 1092.18 78.7257 1090.9 80.7177C1089.63 82.6301 1088.27 85.2595 1086.84 88.6062L1062.46 145.26C1059.91 151.156 1056.6 155.658 1052.53 158.766C1048.47 161.873 1043.97 163.427 1039.03 163.427Z" fill="url(#paint3_linear_2447_11)"/>
<path d="M615.539 16.7615C625.607 19.0378 626.352 29.1975 626.352 29.1975C626.352 29.1975 627.097 19.0378 637.169 16.7615C627.097 14.4852 626.352 4.32554 626.352 4.32554C626.352 4.32554 625.607 14.4852 615.539 16.7615ZM633.922 23.7906C639.459 24.9801 639.87 30.2789 639.87 30.2789C639.87 30.2789 640.28 24.9801 645.818 23.7906C640.28 22.601 639.87 17.3022 639.87 17.3022C639.87 17.3022 639.459 22.601 633.922 23.7906ZM630.137 6.48833C635.675 7.67785 636.085 12.9767 636.085 12.9767C636.085 12.9767 636.495 7.67785 642.033 6.48833C636.495 5.2988 636.085 0 636.085 0C636.085 0 635.675 5.2988 630.137 6.48833Z" fill="url(#paint4_linear_2447_11)"/>
<path d="M1081.27 179.283H0V180.877H1081.27V179.283Z" fill="url(#paint5_linear_2447_11)"/>
</g>
<defs>
<linearGradient id="paint0_linear_2447_11" x1="993.538" y1="279.904" x2="336.076" y2="-163.059" gradientUnits="userSpaceOnUse">
<stop stop-color="#DEA21F"/>
<stop offset="1" stop-color="#FFE865"/>
</linearGradient>
<linearGradient id="paint1_linear_2447_11" x1="452.492" y1="36.2345" x2="539.767" y2="118.594" gradientUnits="userSpaceOnUse">
<stop stop-color="#DEA21F"/>
<stop offset="1" stop-color="#FFE865"/>
</linearGradient>
<linearGradient id="paint2_linear_2447_11" x1="342.562" y1="135.414" x2="21.9313" y2="81.8277" gradientUnits="userSpaceOnUse">
<stop stop-color="#DEA21F"/>
<stop offset="1" stop-color="#FFE865"/>
</linearGradient>
<linearGradient id="paint3_linear_2447_11" x1="1049.1" y1="135.414" x2="648.148" y2="50.2113" gradientUnits="userSpaceOnUse">
<stop stop-color="#DEA21F"/>
<stop offset="1" stop-color="#FFE865"/>
</linearGradient>
<linearGradient id="paint4_linear_2447_11" x1="617.949" y1="-1.03223" x2="630.679" y2="30.2789" gradientUnits="userSpaceOnUse">
<stop stop-color="#FF9432"/>
<stop offset="1" stop-color="#FFBB00"/>
</linearGradient>
<linearGradient id="paint5_linear_2447_11" x1="201.34" y1="179.251" x2="201.346" y2="182.082" gradientUnits="userSpaceOnUse">
<stop stop-color="#DEA21F"/>
<stop offset="1" stop-color="#FFE865"/>
</linearGradient>
<clipPath id="clip0_2447_11">
<rect width="1095.62" height="300" fill="white"/>
</clipPath>
</defs>
</svg>
